HIERARCHY
ROOT Hips
{
    OFFSET 0.000000 0.000000 0.000000
    CHANNELS 6 Xposition Yposition Zposition Zrotation Xrotation Yrotation
    JOINT Chest
    {
        OFFSET -0.000000 0.071157 0.000000
        CHANNELS 3 Zrotation Xrotation Yrotation
        JOINT Chest2
        {
            OFFSET -0.000000 0.200496 0.000000
            CHANNELS 3 Zrotation Xrotation Yrotation
            JOINT Neck
            {
                OFFSET -0.000000 0.217851 0.000000
                CHANNELS 3 Zrotation Xrotation Yrotation
                JOINT Head
                {
                    OFFSET -0.000000 0.094152 0.017355
                    CHANNELS 3 Zrotation Xrotation Yrotation
                    End Site
                    {
                        OFFSET -0.000000 0.173553 0.000000
                    }
                }
            }
            JOINT LeftCollar
            {
                OFFSET 0.034349 0.184703 -0.001098
                CHANNELS 3 Zrotation Xrotation Yrotation
                JOINT LeftShoulder
                {
                    OFFSET 0.100089 0.000000 0.000000
                    CHANNELS 3 Zrotation Xrotation Yrotation
                    JOINT LeftElbow
                    {
                        OFFSET 0.265196 0.000000 0.000000
                        CHANNELS 3 Zrotation Xrotation Yrotation
                        JOINT LeftWrist
                        {
                            OFFSET 0.220131 0.000000 0.000000
                            CHANNELS 3 Zrotation Xrotation Yrotation
                            End Site
                            {
                                OFFSET 0.000000 -0.130165 0.000000
                            }
                        }
                    }
                }
            }
            JOINT RightCollar
            {
                OFFSET -0.035053 0.184703 -0.001098
                CHANNELS 3 Zrotation Xrotation Yrotation
                JOINT RightShoulder
                {
                    OFFSET -0.100089 0.000000 0.000000
                    CHANNELS 3 Zrotation Xrotation Yrotation
                    JOINT RightElbow
                    {
                        OFFSET -0.265196 0.000000 0.000000
                        CHANNELS 3 Zrotation Xrotation Yrotation
                        JOINT RightWrist
                        {
                            OFFSET -0.220131 0.000000 0.000000
                            CHANNELS 3 Zrotation Xrotation Yrotation
                            End Site
                            {
                                OFFSET -0.000000 -0.130165 0.000000
                            }
                        }
                    }
                }
            }
        }
    }
    JOINT LeftHip
    {
        OFFSET 0.086776 0.000000 0.000000
        CHANNELS 3 Zrotation Xrotation Yrotation
        JOINT LeftKnee
        {
            OFFSET -0.000000 -0.397777 0.000000
            CHANNELS 3 Zrotation Xrotation Yrotation
            JOINT LeftAnkle
            {
                OFFSET -0.000000 -0.331973 0.000000
                CHANNELS 3 Zrotation Xrotation Yrotation
                JOINT LeftToe
                {
                    OFFSET -0.000000 -0.056405 0.130165
                    CHANNELS 3 Zrotation Xrotation Yrotation
                    End Site
                    {
                        OFFSET -0.000000 0.000000 0.034711
                    }
                }
            }
        }
    }
    JOINT RightHip
    {
        OFFSET -0.086776 0.000000 0.000000
        CHANNELS 3 Zrotation Xrotation Yrotation
        JOINT RightKnee
        {
            OFFSET -0.000000 -0.397777 0.000000
            CHANNELS 3 Zrotation Xrotation Yrotation
            JOINT RightAnkle
            {
                OFFSET -0.000000 -0.331973 0.000000
                CHANNELS 3 Zrotation Xrotation Yrotation
                JOINT RightToe
                {
                    OFFSET -0.000000 -0.056405 0.130165
                    CHANNELS 3 Zrotation Xrotation Yrotation
                    End Site
                    {
                        OFFSET -0.000000 0.000000 0.034711
                    }
                }
            }
        }
    }
}
MOTION
Frames:    8
Frame Time:    0.016667
-0.070204    0.771336    0.248978    0.439462    4.025657    -173.785980    -5.516120    19.897078    9.176558    3.041727    11.872215    2.414263    -11.082574    11.411419    0.190588    1.971739    3.840237    -2.717766    5.320110    14.813389    0.045144    -148.952667    64.820625    88.799683    -30.048170    -21.824499    -127.638412    102.520004    34.732174    63.587044    -7.080848    0.186165    17.603935    23.591587    33.121628    45.441391    -48.581284    -26.870876    40.273342    -113.017815    4.744438    -7.774859    10.899166    -25.424738    0.946100    -8.287178    27.086185    10.438095    -3.205799    -2.393612    8.988996    0.000000    0.000000    0.000000    6.332778    -4.826861    -9.203165    -9.135124    37.991940    3.255423    1.665046    -25.009478    -3.430947    0.000000    0.000000    0.000000    
-0.074867    0.770126    0.243079    0.481385    3.883238    -173.684982    -5.399753    19.824846    9.121945    2.923139    11.945251    2.414364    -10.955114    11.386933    0.127610    1.887556    3.699879    -2.734616    5.387133    14.641546    -0.076333    -149.260910    64.604744    89.050865    -29.995495    -21.999348    -127.675385    102.484489    34.625328    63.648300    -6.985995    0.158447    17.703070    23.233793    33.002075    45.843781    -48.014175    -26.346165    39.675182    -112.981293    4.673605    -7.770697    10.650845    -25.919867    1.241314    -8.279958    28.562981    9.888641    -3.289915    -2.226683    9.612293    0.000000    0.000000    0.000000    6.114063    -4.588045    -9.269261    -9.350063    38.272251    3.130609    2.184398    -25.525129    -3.137889    0.000000    0.000000    0.000000    
-0.079788    0.769379    0.237219    0.401255    3.747493    -173.614105    -5.500485    19.889385    9.170561    2.903478    11.918964    2.426419    -11.008066    11.360164    0.056566    2.055383    3.665124    -2.844238    5.319633    14.743234    -0.097018    -148.866348    64.822815    88.795517    -30.058189    -21.632032    -127.643890    102.830086    34.767269    63.421585    -6.805487    0.123595    17.554235    22.842064    32.925045    46.390366    -47.207672    -25.922590    39.249535    -113.121117    4.829355    -7.831657    10.349352    -26.348648    1.404541    -8.419950    29.877781    9.733412    -3.480091    -2.012887    10.187494    0.000000    0.000000    0.000000    5.800974    -4.328955    -9.329865    -9.715938    38.520607    3.156991    2.767819    -25.894737    -2.891224    0.000000    0.000000    0.000000    
-0.086099    0.768823    0.229670    0.291922    3.525885    -173.355576    -5.570574    19.906090    9.111196    2.894114    11.966314    2.402020    -10.904201    11.207315    -0.021594    1.953703    3.898761    -2.873554    5.502881    14.597099    -0.220477    -149.686966    64.809738    89.456261    -30.110258    -21.670370    -127.623421    102.990707    34.784996    63.430660    -6.821063    0.103026    17.838057    23.186098    32.812809    46.324394    -46.707108    -25.424911    38.586361    -113.281830    4.619599    -7.862885    9.831128    -26.892153    2.020386    -8.076142    31.410290    9.568454    -3.993881    -1.184577    9.587719    0.000000    0.000000    0.000000    5.379586    -3.896633    -9.088003    -9.630533    38.538681    2.756617    3.220818    -26.199144    -2.964365    0.000000    0.000000    0.000000    
-0.091104    0.768564    0.223611    0.207027    3.329325    -173.203888    -5.835999    19.928253    9.259460    3.263649    11.911049    2.398371    -11.065630    11.376422    -0.087718    1.966556    3.787155    -2.996161    5.319611    14.638651    -0.473380    -150.421005    64.834534    90.252930    -30.127300    -21.915533    -127.783989    103.126976    34.810867    63.626003    -6.938414    0.328189    17.856300    23.343414    32.585300    46.345787    -46.346382    -25.131451    38.210495    -113.229767    4.473173    -7.908084    9.543385    -27.191751    2.603652    -8.001466    32.331230    9.453933    -4.224071    -0.487614    9.051407    0.000000    0.000000    0.000000    5.102055    -3.543197    -8.797743    -9.680596    38.528847    2.302929    3.731871    -26.351690    -2.877921    0.000000    0.000000    0.000000    
-0.096595    0.768374    0.217326    0.163987    3.109004    -172.954193    -5.795509    19.986506    9.222147    3.201329    11.862762    2.395433    -10.975444    11.191236    -0.160374    2.021539    4.181227    -3.047808    5.386781    14.637045    -0.489000    -150.829010    64.921509    90.724640    -30.139507    -21.889723    -127.831184    103.106979    34.579605    63.700893    -6.791028    0.451419    17.726290    23.439438    32.636719    46.473595    -45.998379    -24.785856    37.734951    -113.542336    4.193070    -7.948907    9.212448    -27.508781    3.042471    -8.062807    33.354259    9.129198    -3.080789    -0.588339    8.689850    0.000000    0.000000    0.000000    4.765276    -3.102847    -8.857403    -9.800395    38.315269    2.262645    4.231947    -26.508682    -2.905428    0.000000    0.000000    0.000000    
-0.102056    0.768297    0.211008    0.212703    2.823733    -172.765198    -5.749334    19.891754    9.210773    3.287513    11.910141    2.385604    -11.013453    11.027909    -0.215308    2.098275    4.470055    -3.115471    5.406470    14.645356    -0.494037    -151.298279    64.940399    91.127876    -30.148273    -22.113096    -127.943588    103.096275    34.805840    63.861649    -6.807836    0.564842    17.806810    23.885508    32.548073    46.250324    -45.518456    -24.563799    37.615231    -113.817223    4.265804    -7.933104    8.996336    -27.945910    3.468429    -8.183714    34.536583    9.415718    -2.535422    -0.897945    8.025959    0.000000    0.000000    0.000000    4.498034    -2.799691    -8.356704    -9.573189    38.263912    1.280019    5.117284    -26.395916    -2.375876    0.000000    0.000000    0.000000    
-0.107765    0.768203    0.204812    0.255019    2.543962    -172.613098    -5.644959    19.771309    9.177962    3.306043    11.991868    2.378520    -11.192499    11.070159    -0.221679    2.423906    4.420320    -3.221160    5.458170    14.589798    -0.572504    -151.172363    64.924652    90.938362    -30.200043    -22.094679    -127.944527    103.019112    34.818008    63.938908    -6.873467    0.696496    18.058580    24.363008    32.519608    45.911518    -45.314507    -24.363567    37.242672    -113.651588    4.177677    -7.997806    8.805754    -28.287703    3.472882    -8.678829    35.561714    9.256276    -2.090878    -1.460892    8.230465    0.000000    0.000000    0.000000    4.169893    -2.523671    -8.118970    -9.535254    38.256401    1.368448    5.635597    -26.343796    -2.615598    0.000000    0.000000    0.000000    
